<svg width="156" height="93" viewBox="0 0 156 93" fill="none" xmlns="http://www.w3.org/2000/svg">
<path d="M28 3V11.3333M53 3V11.3333M28 69.6667V78M53 69.6667V78M11.3333 28H3M11.3333 53H3M78 28H69.6667M78 53H69.6667M19.6667 69.6667H61.3333C63.5435 69.6667 65.6631 68.7887 67.2259 67.2259C68.7887 65.6631 69.6667 63.5435 69.6667 61.3333V19.6667C69.6667 17.4565 68.7887 15.3369 67.2259 13.7741C65.6631 12.2113 63.5435 11.3333 61.3333 11.3333H19.6667C17.4565 11.3333 15.3369 12.2113 13.7741 13.7741C12.2113 15.3369 11.3333 17.4565 11.3333 19.6667V61.3333C11.3333 63.5435 12.2113 65.6631 13.7741 67.2259C15.3369 68.7887 17.4565 69.6667 19.6667 69.6667ZM28 28H53V53H28V28Z" stroke="url(#paint0_linear_18_9)" stroke-width="6" stroke-linecap="round" stroke-linejoin="round"/>
<path d="M128 90L128 81.6667M103 90L103 81.6667M128 23.3333L128 15M103 23.3333L103 15M144.667 65L153 65M144.667 40L153 40M78 65L86.3333 65M78 40L86.3333 40M136.333 23.3333L94.6667 23.3333C92.4565 23.3333 90.3369 24.2113 88.7741 25.7741C87.2113 27.3369 86.3333 29.4565 86.3333 31.6667L86.3333 73.3333C86.3333 75.5435 87.2113 77.6631 88.7741 79.2259C90.3369 80.7887 92.4565 81.6667 94.6667 81.6667L136.333 81.6667C138.543 81.6667 140.663 80.7887 142.226 79.2259C143.789 77.6631 144.667 75.5435 144.667 73.3333L144.667 31.6667C144.667 29.4565 143.789 27.3369 142.226 25.7741C140.663 24.2113 138.543 23.3333 136.333 23.3333ZM128 65L103 65L103 40L128 40L128 65Z" stroke="url(#paint1_linear_18_9)" stroke-width="6" stroke-linecap="round" stroke-linejoin="round"/>
<defs>
<linearGradient id="paint0_linear_18_9" x1="-6.73684" y1="-4.41107" x2="103.773" y2="76.3186" gradientUnits="userSpaceOnUse">
<stop stop-color="#023E8A"/>
<stop offset="1" stop-color="#0077B6"/>
</linearGradient>
<linearGradient id="paint1_linear_18_9" x1="162.737" y1="97.4111" x2="52.2268" y2="16.6814" gradientUnits="userSpaceOnUse">
<stop stop-color="#023E8A"/>
<stop offset="1" stop-color="#0077B6"/>
</linearGradient>
</defs>
</svg>
